<svg viewBox="0 0 25 25">
  <path d="M12.476,0C5.587,0,0,5.586,0,12.476 c0,5.512,3.575,10.189,8.533,11.842c0.623,0.113,0.853-0.271,0.853-0.604c0-0.296-0.011-1.279-0.017-2.32 c-3.471,0.754-4.203-1.473-4.203-1.473c-0.568-1.444-1.386-1.827-1.386-1.827c-1.132-0.772,0.085-0.758,0.085-0.758 c1.253,0.088,1.913,1.286,1.913,1.286c1.113,1.908,2.919,1.356,3.631,1.039c0.112-0.81,0.435-1.358,0.791-1.67 c-2.771-0.315-5.684-1.385-5.684-6.167c0-1.362,0.487-2.475,1.286-3.349c-0.13-0.314-0.558-1.582,0.121-3.301 c0,0,1.047-0.336,3.432,1.278c0.995-0.276,2.062-0.415,3.122-0.419c1.061,0.004,2.129,0.143,3.125,0.419 c2.384-1.614,3.43-1.278,3.43-1.278c0.68,1.719,0.25,2.987,0.122,3.301c0.801,0.874,1.283,1.986,1.283,3.349 c0,4.792-2.918,5.847-5.696,6.157c0.447,0.385,0.847,1.146,0.847,2.309c0,1.671-0.015,3.015-0.015,3.424 c0,0.333,0.224,0.723,0.855,0.602c4.957-1.652,8.526-6.329,8.526-11.84C24.953,5.586,19.365,0,12.476,0z"/>
</svg>
