<svg viewBox="-48 -48 120 120">
  <path d="M-17.1-4.4c2.2-2.2,4.6-4,7.2-5.4c14.4-8,32.9-3.7,42.2,10.3L21.2,11.7C17.9,4.4,9.9,0.2,2,2 c-3,0.7-5.8,2.2-8.2,4.5L-27.7,28c-6.5,6.5-6.5,17.2,0,23.7s17.2,6.5,23.7,0l6.6-6.6c6,2.4,12.5,3.4,18.9,2.9L6.9,62.6 c-12.6,12.6-32.9,12.6-45.5,0s-12.6-32.9,0-45.5C-38.6,17.1-17.1-4.4-17.1-4.4z M17.1-38.6L2.5-23.9c6.4-0.5,12.9,0.5,18.9,2.9 l6.6-6.6c6.5-6.5,17.2-6.5,23.7,0s6.5,17.2,0,23.7L30.2,17.5c-6.6,6.6-17.2,6.5-23.7,0C5,16,3.7,14.1,2.8,12.3L-8.4,23.5 c1.2,1.8,2.4,3.3,4,4.9c4.1,4.1,9.2,7.1,15.2,8.5c7.7,1.9,16,0.8,23.1-3.1c2.6-1.4,5-3.2,7.2-5.4L62.6,6.9 c12.6-12.6,12.6-32.9,0-45.5C50-51.1,29.7-51.1,17.1-38.6z"/>
</svg>
